Coordinates
version=1
nRows=6
nColumns=63
inDegrees=yes

Units are S.I. units (second, meters, Newtons, ...)
If the header above contains a line with 'inDegrees', this indicates whether rotational values are in degrees (yes) or radians (no).

endheader
time	pelvis_tilt	pelvis_list	pelvis_rotation	pelvis_tx	pelvis_ty	pelvis_tz	hip_flexion_r	hip_adduction_r	hip_rotation_r	knee_angle_r	knee_angle_r_beta	ankle_angle_r	subtalar_angle_r	mtp_angle_r	hip_flexion_l	hip_adduction_l	hip_rotation_l	knee_angle_l	knee_angle_l_beta	ankle_angle_l	subtalar_angle_l	mtp_angle_l	L5_S1_Flex_Ext	L5_S1_Lat_Bending	L5_S1_axial_rotation	L4_L5_Flex_Ext	L4_L5_Lat_Bending	L4_L5_axial_rotation	L3_L4_Flex_Ext	L3_L4_Lat_Bending	L3_L4_axial_rotation	L2_L3_Flex_Ext	L2_L3_Lat_Bending	L2_L3_axial_rotation	L1_L2_Flex_Ext	L1_L2_Lat_Bending	L1_L2_axial_rotation	L1_T12_Flex_Ext	L1_T12_Lat_Bending	L1_T12_axial_rotation	Abs_r3	Abs_r2	Abs_r1	Abs_t1	Abs_t2	neck_flexion	neck_bending	neck_rotation	arm_flex_r	arm_add_r	arm_rot_r	elbow_flex_r	pro_sup_r	wrist_flex_r	wrist_dev_r	arm_flex_l	arm_add_l	arm_rot_l	elbow_flex_l	pro_sup_l	wrist_flex_l	wrist_dev_l
      7.79661017	      2.35283567	     -0.19563529	     85.90365946	      0.16036421	      0.90766196	      0.44267438	     -8.25636365	      1.69042891	    -15.48819681	     10.19382936	      0.17791589	     35.59563160	     10.62534461	      0.00000000	    -11.56206673	     -2.88677973	      6.62186819	      0.24323124	      0.00424519	     33.46759974	     -9.17290176	      0.00000000	     -0.04596116	      0.59098621	      1.02088658	     -0.08535447	      0.78601166	      1.08469199	     -0.07550959	      1.43692386	      1.08469199	     -0.05252901	      1.43692386	      0.89327576	     -0.04267953	      1.20513907	      0.82947035	     -0.02626221	      0.91543763	      0.76566494	     -0.32829597	      6.68535417	      5.67786489	      0.00000000	      0.00000000	      9.46212597	     15.54765293	     24.07035231	      5.73014396	    -13.41201885	    111.84988875	     19.32444692	     11.07509872	      2.47015547	     -4.22845258	      4.88796633	     -3.73765670	    167.87440456	      1.58244932	     25.00649318	     -4.94904691	      1.47171000
      7.81355932	      2.44027039	     -0.21143949	     85.85384065	      0.16014863	      0.90750394	      0.44249424	     -8.04241261	      1.72255212	    -15.23832643	     10.60844988	      0.18515238	     35.57630491	     10.32656084	      0.00000000	    -11.57646493	     -2.95924036	      6.52897341	      0.23954278	      0.00418081	     33.55499136	     -9.36657487	      0.00000000	     -0.03248214	      0.61122843	      1.09298009	     -0.06032258	      0.81293381	      1.16129134	     -0.05336491	      1.48614080	      1.16129134	     -0.03712384	      1.48614080	      0.95635758	     -0.03016291	      1.24641701	      0.88804632	     -0.01856029	      0.94679283	      0.81973507	     -0.23201667	      6.91433821	      6.07882735	      0.00000000	      0.00000000	      9.93500873	     15.42400318	     24.19917490	      5.64013098	    -13.49299153	    111.73950451	     19.25940416	     11.40578142	      2.60312687	     -4.56981985	      5.10503668	     -3.69035165	    167.10918904	      1.46786087	     24.26996381	     -4.71333730	      0.95395637
      7.83050847	      2.42164486	     -0.19574883	     85.95981058	      0.15974109	      0.90740455	      0.44201336	     -8.06830845	      1.69321864	    -15.22646573	     10.64213874	      0.18574036	     35.54323827	     10.31225387	      0.00000000	    -11.62669739	     -2.93474270	      6.52606603	      0.23279618	      0.00406306	     33.55245138	     -9.36729642	      0.00000000	     -0.01533771	      0.61694403	      1.10729757	     -0.02848366	      0.82053556	      1.17650367	     -0.02519832	      1.50003772	      1.17650367	     -0.01752947	      1.50003772	      0.96888537	     -0.01424260	      1.25807227	      0.89967928	     -0.00876397	      0.95564631	      0.83047318	     -0.10955573	      6.97899428	      6.15845689	      0.00000000	      0.00000000	      9.98398661	     15.42491589	     24.22100558	      5.62288308	    -13.51334255	    111.74476633	     19.26768936	     11.42317188	      2.61772028	     -4.55538131	      5.25409998	     -3.66141201	    167.05294198	      1.39390161	     24.22100002	     -4.74228988	      0.93253957
      7.84745763	      2.63292793	     -0.27569110	     85.64398397	      0.15941573	      0.90716624	      0.44199043	     -7.70373993	      1.81474178	    -14.35324731	     11.22944553	      0.19599080	     35.44494048	      9.20236607	      0.00000000	    -11.63584345	     -3.06974757	      6.39564176	      0.22107062	      0.00385841	     33.37971244	     -9.28422725	      0.00000000	     -0.01028642	      0.65784434	      1.20414983	     -0.01910292	      0.87493297	      1.27940919	     -0.01689957	      1.59948273	      1.27940919	     -0.01175635	      1.59948273	      1.05363110	     -0.00955197	      1.34147618	      0.97837174	     -0.00587766	      1.01900088	      0.90311237	     -0.07347489	      7.44166674	      6.69712010	      0.00000000	      0.00000000	     10.96884984	     15.31852684	     24.41113140	      5.64265285	    -13.84356425	    110.72639623	     19.27001766	     12.18433991	      3.71093832	     -4.00047520	      5.22062809	     -3.71342971	    164.38763287	      1.53627980	     21.49538458	     -6.10942818	     -0.50144032
      7.86440678	      2.75300301	     -0.29821701	     85.68319530	      0.15894766	      0.90697639	      0.44201875	     -7.57335043	      1.90708421	    -14.29485726	     11.45404255	      0.19991076	     35.52730209	      8.94831677	      0.00000000	    -11.63409450	     -3.18825897	      6.48729188	      0.21680276	      0.00378392	     33.24743379	     -9.06031641	      0.00000000	     -0.00655037	      0.67934397	      1.21362787	     -0.01216469	      0.90352748	      1.28947962	     -0.01076160	      1.65175693	      1.28947962	     -0.00748641	      1.65175693	      1.06192439	     -0.00608267	      1.38531822	      0.98607265	     -0.00374288	      1.05230381	      0.91022091	     -0.04678861	      7.68487485	      6.74983415	      0.00000000	      0.00000000	     11.77801724	     15.70094391	     24.44600304	      5.89781794	    -14.02466189	    110.52226470	     19.43229349	     12.37594768	      4.10526870	     -3.49052283	      5.39313970	     -3.68017496	    164.16106271	      1.62593079	     21.22253757	     -6.34072383	     -0.74486123
      7.88135593	      2.85687998	     -0.26028146	     85.54624201	      0.15869515	      0.90672423	      0.44173957	     -7.52938439	      2.05952396	    -12.98473500	     11.58102514	      0.20212702	     35.56854968	      7.44584500	      0.00000000	    -11.73670346	     -3.25402015	      4.70106209	      0.21187164	      0.00369786	     33.58911642	     -6.56724415	      0.00000000	     -0.00337168	      0.70181297	      1.24820595	     -0.00626155	      0.93341125	      1.32621882	     -0.00553934	      1.70638805	      1.32621882	     -0.00385350	      1.70638805	      1.09218020	     -0.00313094	      1.43113700	      1.01416733	     -0.00192658	      1.08710829	      0.93615446	     -0.02408359	      7.93904865	      6.94214702	      0.00000000	      0.00000000	     12.48202331	     15.90344030	     24.26302523	      5.02232724	    -14.95130096	    100.52685092	     20.37473064	     21.30075184	      4.37977589	     -0.53765871	      5.55296554	     -3.70729325	    164.26862110	      1.93531131	     19.71092492	     -6.53606151	     -1.49150106
